<mxfile host="65bd71144e">
    <diagram id="cuyTe1RKbYScPPsMN8rJ" name="Страница 1">
        <mxGraphModel dx="1535" dy="347" grid="1" gridSize="10" guides="1" tooltips="1" connect="1" arrows="1" fold="1" page="1" pageScale="1" pageWidth="827" pageHeight="1169" math="0" shadow="0">
            <root>
                <mxCell id="0"/>
                <mxCell id="1" parent="0"/>
                <mxCell id="SJSyFxWOmgoGfbgXVqwW-1" value="" style="rounded=1;whiteSpace=wrap;html=1;" parent="1" vertex="1">
                    <mxGeometry x="-81" y="210" width="990" height="610" as="geometry"/>
                </mxCell>
                <mxCell id="SJSyFxWOmgoGfbgXVqwW-3" value="" style="sketch=0;aspect=fixed;pointerEvents=1;shadow=0;dashed=0;html=1;strokeColor=none;labelPosition=center;verticalLabelPosition=bottom;verticalAlign=top;align=center;fillColor=#00188D;shape=mxgraph.mscae.enterprise.client_application" parent="1" vertex="1">
                    <mxGeometry x="-390" y="448" width="165.63" height="106" as="geometry"/>
                </mxCell>
                <mxCell id="SJSyFxWOmgoGfbgXVqwW-5" value="" style="sketch=0;aspect=fixed;pointerEvents=1;shadow=0;dashed=0;html=1;strokeColor=none;labelPosition=center;verticalLabelPosition=bottom;verticalAlign=top;align=center;fillColor=#00188D;shape=mxgraph.azure.server_rack" parent="1" vertex="1">
                    <mxGeometry x="310" y="440" width="160" height="160" as="geometry"/>
                </mxCell>
                <mxCell id="SJSyFxWOmgoGfbgXVqwW-8" value="" style="aspect=fixed;html=1;points=[];align=center;image;fontSize=12;image=img/lib/azure2/databases/Azure_Database_PostgreSQL_Server.svg;" parent="1" vertex="1">
                    <mxGeometry x="690" y="655" width="97.5" height="130" as="geometry"/>
                </mxCell>
                <mxCell id="SJSyFxWOmgoGfbgXVqwW-12" value="" style="endArrow=classic;startArrow=classic;html=1;rounded=0;" parent="1" source="SJSyFxWOmgoGfbgXVqwW-3" edge="1">
                    <mxGeometry width="50" height="50" relative="1" as="geometry">
                        <mxPoint x="180" y="510" as="sourcePoint"/>
                        <mxPoint x="-90" y="500" as="targetPoint"/>
                    </mxGeometry>
                </mxCell>
                <mxCell id="SJSyFxWOmgoGfbgXVqwW-15" value="" style="endArrow=classic;startArrow=classic;html=1;rounded=0;" parent="1" edge="1">
                    <mxGeometry width="50" height="50" relative="1" as="geometry">
                        <mxPoint x="-80" y="500" as="sourcePoint"/>
                        <mxPoint x="310" y="500" as="targetPoint"/>
                        <Array as="points">
                            <mxPoint x="-50" y="500"/>
                        </Array>
                    </mxGeometry>
                </mxCell>
                <mxCell id="SJSyFxWOmgoGfbgXVqwW-23" value="" style="shape=image;html=1;verticalAlign=top;verticalLabelPosition=bottom;labelBackgroundColor=#ffffff;imageAspect=0;aspect=fixed;image=https://cdn0.iconfinder.com/data/icons/google-material-design-3-0/48/ic_http_48px-128.png" parent="1" vertex="1">
                    <mxGeometry x="-190" y="444" width="70" height="70" as="geometry"/>
                </mxCell>
                <mxCell id="SJSyFxWOmgoGfbgXVqwW-24" value="" style="shape=image;html=1;verticalAlign=top;verticalLabelPosition=bottom;labelBackgroundColor=#ffffff;imageAspect=0;aspect=fixed;image=https://cdn0.iconfinder.com/data/icons/google-material-design-3-0/48/ic_http_48px-128.png" parent="1" vertex="1">
                    <mxGeometry x="60" y="440" width="70" height="70" as="geometry"/>
                </mxCell>
                <mxCell id="SJSyFxWOmgoGfbgXVqwW-29" value="&lt;h1&gt;&lt;font style=&quot;font-size: 34px; line-height: 0;&quot; face=&quot;Times New Roman&quot;&gt;Client&lt;/font&gt;&lt;/h1&gt;&lt;h1&gt;&lt;font style=&quot;font-size: 34px;&quot; face=&quot;Times New Roman&quot;&gt;React JS&lt;/font&gt;&lt;/h1&gt;" style="text;html=1;strokeColor=none;fillColor=none;align=center;verticalAlign=middle;whiteSpace=wrap;rounded=0;" parent="1" vertex="1">
                    <mxGeometry x="-440" y="600" width="280" height="30" as="geometry"/>
                </mxCell>
                <mxCell id="SJSyFxWOmgoGfbgXVqwW-30" value="&lt;h1&gt;&lt;font style=&quot;font-size: 38px;&quot; face=&quot;Times New Roman&quot;&gt;Flask&lt;/font&gt;&lt;/h1&gt;" style="text;html=1;strokeColor=none;fillColor=none;align=center;verticalAlign=middle;whiteSpace=wrap;rounded=0;" parent="1" vertex="1">
                    <mxGeometry x="330" y="380" width="130" height="50" as="geometry"/>
                </mxCell>
                <mxCell id="I6G_n0mGJ-G42KehWbpr-2" value="" style="endArrow=classic;startArrow=classic;html=1;rounded=0;exitX=0.99;exitY=0.99;exitDx=0;exitDy=0;exitPerimeter=0;" parent="1" source="SJSyFxWOmgoGfbgXVqwW-5" target="SJSyFxWOmgoGfbgXVqwW-8" edge="1">
                    <mxGeometry width="50" height="50" relative="1" as="geometry">
                        <mxPoint x="530" y="650.0002127659576" as="sourcePoint"/>
                        <mxPoint x="660" y="650.5534042553192" as="targetPoint"/>
                    </mxGeometry>
                </mxCell>
                <mxCell id="I6G_n0mGJ-G42KehWbpr-3" value="" style="sketch=0;aspect=fixed;html=1;points=[];align=center;image;fontSize=12;image=img/lib/mscae/Cache_Redis_Product.svg;" parent="1" vertex="1">
                    <mxGeometry x="684" y="270" width="142.86" height="120" as="geometry"/>
                </mxCell>
                <mxCell id="I6G_n0mGJ-G42KehWbpr-4" value="" style="endArrow=classic;startArrow=classic;html=1;rounded=0;exitX=1.023;exitY=0.106;exitDx=0;exitDy=0;exitPerimeter=0;" parent="1" source="SJSyFxWOmgoGfbgXVqwW-5" target="I6G_n0mGJ-G42KehWbpr-3" edge="1">
                    <mxGeometry width="50" height="50" relative="1" as="geometry">
                        <mxPoint x="510.0000000000001" y="439.9999999999999" as="sourcePoint"/>
                        <mxPoint x="731.6" y="539.6728685037914" as="targetPoint"/>
                    </mxGeometry>
                </mxCell>
                <mxCell id="I6G_n0mGJ-G42KehWbpr-6" value="&lt;h1&gt;&lt;font style=&quot;font-size: 36px;&quot; face=&quot;Times New Roman&quot;&gt;write/read&lt;/font&gt;&lt;/h1&gt;" style="text;html=1;strokeColor=none;fillColor=none;align=center;verticalAlign=middle;whiteSpace=wrap;rounded=0;fontSize=38;" parent="1" vertex="1">
                    <mxGeometry x="600" y="584" width="60" height="30" as="geometry"/>
                </mxCell>
                <mxCell id="I6G_n0mGJ-G42KehWbpr-8" style="edgeStyle=orthogonalEdgeStyle;rounded=0;orthogonalLoop=1;jettySize=auto;html=1;exitX=0.5;exitY=1;exitDx=0;exitDy=0;entryX=0.25;entryY=1;entryDx=0;entryDy=0;fontSize=38;" parent="1" edge="1">
                    <mxGeometry relative="1" as="geometry">
                        <mxPoint x="330" y="580" as="sourcePoint"/>
                        <mxPoint x="315" y="580" as="targetPoint"/>
                    </mxGeometry>
                </mxCell>
                <mxCell id="I6G_n0mGJ-G42KehWbpr-10" value="&lt;h1&gt;&lt;font style=&quot;font-size: 36px;&quot; face=&quot;Times New Roman&quot;&gt;write/read&lt;/font&gt;&lt;/h1&gt;" style="text;html=1;strokeColor=none;fillColor=none;align=center;verticalAlign=middle;whiteSpace=wrap;rounded=0;fontSize=38;" parent="1" vertex="1">
                    <mxGeometry x="610" y="418" width="60" height="30" as="geometry"/>
                </mxCell>
            </root>
        </mxGraphModel>
    </diagram>
</mxfile>